<svg width="56" height="56" viewBox="0 0 56 56" fill="none" xmlns="http://www.w3.org/2000/svg">
<rect width="56" height="56" rx="10" fill="white" fill-opacity="0.37"/>
<path d="M33.8466 32.5844C34.6974 32.1273 35.6712 31.8672 36.7083 31.8672H36.7118C36.8173 31.8672 36.8665 31.7406 36.7892 31.6703C35.7106 30.7024 34.4786 29.9206 33.1434 29.357C33.1294 29.35 33.1153 29.3465 33.1013 29.3395C35.2845 27.7539 36.7048 25.177 36.7048 22.2695C36.7048 17.4531 32.8095 13.5508 28.0036 13.5508C23.1977 13.5508 19.3059 17.4531 19.3059 22.2695C19.3059 25.177 20.7263 27.7539 22.913 29.3395C22.8989 29.3465 22.8849 29.35 22.8708 29.357C21.2993 30.0215 19.8895 30.9742 18.6767 32.1906C17.4708 33.3943 16.5107 34.8213 15.8501 36.3918C15.2001 37.9298 14.8493 39.5775 14.8165 41.2469C14.8156 41.2844 14.8221 41.3217 14.8359 41.3567C14.8496 41.3916 14.8701 41.4234 14.8963 41.4503C14.9226 41.4772 14.9539 41.4985 14.9885 41.5131C15.0231 41.5277 15.0602 41.5352 15.0977 41.5352H17.2036C17.3548 41.5352 17.4813 41.4121 17.4849 41.2609C17.5552 38.5469 18.6415 36.0051 20.5645 34.0785C22.5509 32.0852 25.1946 30.9883 28.0071 30.9883C30.0005 30.9883 31.913 31.5402 33.5618 32.5738C33.6042 32.6004 33.6528 32.6154 33.7028 32.6173C33.7528 32.6191 33.8024 32.6078 33.8466 32.5844ZM28.0071 28.3164C26.397 28.3164 24.8817 27.6871 23.7392 26.5445C23.177 25.9838 22.7313 25.3174 22.4278 24.5837C22.1243 23.85 21.969 23.0635 21.9708 22.2695C21.9708 20.6559 22.6001 19.1371 23.7392 17.9945C24.8782 16.852 26.3934 16.2227 28.0071 16.2227C29.6208 16.2227 31.1325 16.852 32.2751 17.9945C32.8373 18.5552 33.2829 19.2216 33.5864 19.9553C33.8899 20.689 34.0452 21.4755 34.0434 22.2695C34.0434 23.8832 33.4142 25.402 32.2751 26.5445C31.1325 27.6871 29.6173 28.3164 28.0071 28.3164ZM40.9376 36.6836H37.9845V33.7305C37.9845 33.5758 37.8579 33.4492 37.7032 33.4492H35.7345C35.5798 33.4492 35.4532 33.5758 35.4532 33.7305V36.6836H32.5001C32.3454 36.6836 32.2188 36.8102 32.2188 36.9648V38.9336C32.2188 39.0883 32.3454 39.2148 32.5001 39.2148H35.4532V42.168C35.4532 42.3227 35.5798 42.4492 35.7345 42.4492H37.7032C37.8579 42.4492 37.9845 42.3227 37.9845 42.168V39.2148H40.9376C41.0923 39.2148 41.2188 39.0883 41.2188 38.9336V36.9648C41.2188 36.8102 41.0923 36.6836 40.9376 36.6836Z" fill="white"/>
</svg>
