<svg width="56" height="56" viewBox="0 0 56 56" fill="none" xmlns="http://www.w3.org/2000/svg">
<rect width="56" height="56" rx="10" fill="white" fill-opacity="0.37"/>
<path d="M40.8571 30.1429H30.1429V40.8571C30.1429 41.4255 29.9171 41.9705 29.5152 42.3724C29.1134 42.7742 28.5683 43 28 43C27.4317 43 26.8866 42.7742 26.4848 42.3724C26.0829 41.9705 25.8571 41.4255 25.8571 40.8571V30.1429H15.1429C14.5745 30.1429 14.0295 29.9171 13.6276 29.5152C13.2258 29.1134 13 28.5683 13 28C13 27.4317 13.2258 26.8866 13.6276 26.4848C14.0295 26.0829 14.5745 25.8571 15.1429 25.8571H25.8571V15.1429C25.8571 14.5745 26.0829 14.0295 26.4848 13.6276C26.8866 13.2258 27.4317 13 28 13C28.5683 13 29.1134 13.2258 29.5152 13.6276C29.9171 14.0295 30.1429 14.5745 30.1429 15.1429V25.8571H40.8571C41.4255 25.8571 41.9705 26.0829 42.3724 26.4848C42.7742 26.8866 43 27.4317 43 28C43 28.5683 42.7742 29.1134 42.3724 29.5152C41.9705 29.9171 41.4255 30.1429 40.8571 30.1429Z" fill="white"/>
</svg>
