<svg width="56" height="56" viewBox="0 0 56 56" fill="none" xmlns="http://www.w3.org/2000/svg">
<rect width="56" height="56" rx="10" fill="white" fill-opacity="0.37"/>
<g clip-path="url(#clip0_1_88)">
<path d="M34.9609 12C35.3871 12.0001 35.7985 12.1565 36.1171 12.4398C36.4356 12.723 36.6391 13.1133 36.689 13.5366L36.7011 13.7402V15.4804H40.1816C41.0597 15.4802 41.9054 15.8118 42.5492 16.4088C43.1931 17.0059 43.5875 17.8243 43.6533 18.6999L43.662 18.9609V39.8436C43.6623 40.7216 43.3307 41.5674 42.7336 42.2112C42.1366 42.8551 41.3182 43.2495 40.4426 43.3153L40.1816 43.324H15.8185C14.9404 43.3243 14.0947 42.9927 13.4508 42.3956C12.807 41.7986 12.4126 40.9802 12.3467 40.1046L12.338 39.8436V18.9609C12.3377 18.0828 12.6694 17.2371 13.2664 16.5932C13.8635 15.9494 14.6818 15.555 15.5574 15.4891L15.8185 15.4804H19.2989V13.7402C19.2994 13.2967 19.4692 12.8701 19.7737 12.5475C20.0782 12.225 20.4944 12.0309 20.9371 12.0049C21.3799 11.9789 21.8159 12.123 22.1561 12.4077C22.4962 12.6924 22.7148 13.0962 22.7672 13.5366L22.7794 13.7402V15.4804H33.2207V13.7402C33.2207 13.2787 33.404 12.8361 33.7304 12.5097C34.0567 12.1833 34.4994 12 34.9609 12ZM40.1816 27.662H15.8185V39.8436H40.1816V27.662ZM40.1816 18.9609H15.8185V24.1816H40.1816V18.9609Z" fill="white"/>
</g>
<defs>
<clipPath id="clip0_1_88">
<rect width="36" height="36" fill="white" transform="translate(10 10)"/>
</clipPath>
</defs>
</svg>
