<svg width="56" height="56" viewBox="0 0 56 56" fill="none" xmlns="http://www.w3.org/2000/svg">
<rect width="56" height="56" rx="10" fill="white" fill-opacity="0.37"/>
<path fill-rule="evenodd" clip-rule="evenodd" d="M34.4452 33.3074C34.5665 36.0555 32.3486 38.3793 29.4918 38.4961C29.2814 38.505 19.0228 38.4843 19.0228 38.4843C16.1798 38.7001 13.6916 36.6572 13.4674 33.9194C13.4505 33.7154 13.4551 22.7082 13.4551 22.7082C13.3291 19.9572 15.5439 17.6274 18.4023 17.5062C18.6158 17.4959 28.8605 17.5151 28.8605 17.5151C31.7174 17.3022 34.2133 19.36 34.4345 22.111C34.4498 22.3091 34.4452 33.3074 34.4452 33.3074Z" stroke="white" stroke-width="3.11111" stroke-linecap="round" stroke-linejoin="round"/>
<path d="M34.45 24.9697L39.3895 20.9272C40.6135 19.9252 42.4494 20.7982 42.4479 22.3777L42.43 33.4012C42.4285 34.9807 40.591 35.8462 39.37 34.8442L34.45 30.8017" stroke="white" stroke-width="3.11111" stroke-linecap="round" stroke-linejoin="round"/>
</svg>
